<?xml version="1.0" encoding="utf-8"?>
<!-- Generator: Adobe Illustrator 19.0.0, SVG Export Plug-In . SVG Version: 6.00 Build 0)  -->
<svg version="1.1" id="Layer_1" xmlns="http://www.w3.org/2000/svg" xmlns:xlink="http://www.w3.org/1999/xlink" x="0px" y="0px"
	 viewBox="0 0 500 500" style="enable-background:new 0 0 500 500;" xml:space="preserve">
<g>
	<path d="M73,277.3L73,277.3c-3,0-5.5-2.4-5.5-5.5v-14.4c0-3,2.4-5.5,5.5-5.5l0,0c3,0,5.5,2.4,5.5,5.5v14.4
		C78.4,274.9,76,277.3,73,277.3z M94.6,276.8v-25c0-3-2.4-5.5-5.5-5.5l0,0c-3,0-5.5,2.4-5.5,5.5v25c0,3,2.4,5.5,5.5,5.5l0,0
		C92.1,282.2,94.6,279.8,94.6,276.8z M110.7,282.3v-35.7c0-3-2.4-5.5-5.5-5.5l0,0c-3,0-5.5,2.4-5.5,5.5v35.7c0,3,2.4,5.5,5.5,5.5
		l0,0C108.3,287.8,110.7,285.3,110.7,282.3z M126.9,287.4v-46.5c0-3-2.4-5.5-5.5-5.5l0,0c-3,0-5.5,2.4-5.5,5.5v46.5
		c0,3,2.4,5.5,5.5,5.5l0,0C124.4,292.9,126.9,290.4,126.9,287.4z M150.8,228.6l-72.9-21.3c-0.5-0.2-1.1-0.2-1.6-0.2
		c-3.1,0-5.8,2.5-5.8,5.8v34.4h4.3v-34.4c0-0.9,0.7-1.4,1.4-1.4c0.1,0,0.3,0,0.4,0.1l72.9,21.3c0.6,0.2,1,0.7,1,1.4v45.9
		c0,0.9-0.7,1.4-1.4,1.4c-0.1,0-0.3,0-0.4-0.1l-16.6-4.9v4.5l15.4,4.5c0.5,0.2,1.1,0.2,1.6,0.2c3.1,0,5.8-2.5,5.8-5.8v-45.9
		C155,231.6,153.3,229.4,150.8,228.6z M197.3,227.8c2.9-0.5,6.6-0.9,11.4-0.9c5.9,0,10.2,1.4,12.9,3.8c2.5,2.2,4,5.5,4,9.6
		c0,4.2-1.2,7.4-3.6,9.8c-3.1,3.3-8.3,5.1-14.1,5.1c-1.8,0-3.4-0.1-4.8-0.4v18.4h-5.9V227.8z M203.2,250c1.3,0.3,2.9,0.5,4.9,0.5
		c7.2,0,11.5-3.5,11.5-9.8c0-6.1-4.3-9-10.9-9c-2.6,0-4.6,0.2-5.6,0.5V250z M261.6,256.5c0,12.2-8.5,17.6-16.5,17.6
		c-8.9,0-15.8-6.6-15.8-17c0-11.1,7.2-17.6,16.4-17.6C255.2,239.5,261.6,246.4,261.6,256.5z M235.4,256.9c0,7.2,4.2,12.7,10,12.7
		c5.7,0,10-5.4,10-12.8c0-5.6-2.8-12.7-9.9-12.7C238.5,244,235.4,250.6,235.4,256.9z M271.1,240.3l4.4,16.8c1,3.7,1.8,7.1,2.5,10.5
		h0.2c0.8-3.3,1.8-6.9,2.9-10.4l5.4-16.9h5.1l5.1,16.5c1.2,4,2.2,7.4,2.9,10.8h0.2c0.5-3.3,1.4-6.8,2.5-10.7l4.7-16.6h5.9
		l-10.7,33.1h-5.5l-5.1-15.8c-1.2-3.7-2.1-7-2.9-10.9h-0.1c-0.8,4-1.8,7.4-3,10.9l-5.3,15.7h-5.5l-10-33.1H271.1z M321.7,257.9
		c0.1,8.1,5.3,11.5,11.3,11.5c4.3,0,6.9-0.8,9.2-1.7l1,4.3c-2.1,1-5.7,2-11,2c-10.2,0-16.3-6.7-16.3-16.7s5.9-17.8,15.5-17.8
		c10.8,0,13.7,9.5,13.7,15.6c0,1.2-0.1,2.2-0.2,2.8H321.7z M339.3,253.6c0.1-3.8-1.6-9.8-8.3-9.8c-6.1,0-8.7,5.6-9.2,9.8H339.3z
		 M352.5,250.6c0-3.9-0.1-7.2-0.3-10.3h5.3l0.2,6.5h0.3c1.5-4.4,5.1-7.2,9.2-7.2c0.7,0,1.2,0.1,1.7,0.2v5.7c-0.6-0.1-1.2-0.2-2-0.2
		c-4.2,0-7.2,3.2-8.1,7.7c-0.1,0.8-0.3,1.8-0.3,2.8v17.6h-5.9V250.6z M389.5,227.9c2.6-0.5,6.7-1,10.9-1c5.9,0,9.8,1,12.6,3.3
		c2.4,1.8,3.8,4.5,3.8,8.1c0,4.4-2.9,8.3-7.8,10.1v0.1c4.4,1.1,9.5,4.7,9.5,11.5c0,4-1.6,7-3.9,9.2c-3.2,2.9-8.4,4.3-15.9,4.3
		c-4.1,0-7.2-0.3-9.2-0.5V227.9z M395.5,246.7h5.4c6.3,0,10-3.3,10-7.7c0-5.4-4.1-7.5-10.1-7.5c-2.7,0-4.3,0.2-5.3,0.4V246.7z
		 M395.5,268.8c1.2,0.2,2.9,0.3,5,0.3c6.1,0,11.8-2.3,11.8-8.9c0-6.3-5.4-8.9-11.9-8.9h-4.9V268.8z M432.5,227.3v46h-5.9v-46H432.5z
		"/>
</g>
</svg>
